<?xml version="1.0" encoding="utf-8" ?>
<svg baseProfile="tiny" height="800px" version="1.2" width="800px" xmlns="http://www.w3.org/2000/svg" xmlns:ev="http://www.w3.org/2001/xml-events" xmlns:xlink="http://www.w3.org/1999/xlink"><defs /><g><line stroke="#FF69B4" stroke-dasharray="4,4" stroke-width="1" x1="568.4683" x2="80.0" y1="675.2812" y2="578.8256" /><line stroke="#FF69B4" stroke-dasharray="4,4" stroke-width="1" x1="100.0" x2="100.0" y1="558.8256" y2="565.5144" /><line stroke="#FF69B4" stroke-dasharray="4,4" stroke-width="1" x1="548.4683" x2="548.4683" y1="655.2812" y2="565.5144" /><line stroke="#FF69B4" stroke-width="1" x1="568.4683" x2="568.4683" y1="670.2812" y2="680.2812" /><line stroke="#FF69B4" stroke-width="1" x1="80.0" x2="80.0" y1="573.8256" y2="583.8256" /><line stroke="#FF69B4" stroke-width="1" x1="95.0" x2="105.0" y1="558.8256" y2="558.8256" /><line stroke="#FF69B4" stroke-width="1" x1="95.0" x2="105.0" y1="565.5144" y2="565.5144" /><line stroke="#FF69B4" stroke-width="1" x1="543.4683" x2="553.4683" y1="655.2812" y2="655.2812" /><line stroke="#FF69B4" stroke-width="1" x1="543.4683" x2="553.4683" y1="565.5144" y2="565.5144" /></g><g><line stroke="rgb(0%,100%,100%)" stroke-width="1.5" x1="568.4683" x2="80.0" y1="655.2812" y2="558.8256" /><line stroke="rgb(0%,100%,100%)" stroke-width="1.5" x1="80.0" x2="80.0" y1="558.8256" y2="234.4856" /><line stroke="rgb(0%,100%,100%)" stroke-dasharray="4,4" stroke-width="1.5" x1="80.0" x2="568.4683" y1="234.4856" y2="330.9412" /><line stroke="rgb(0%,100%,100%)" stroke-width="1.5" x1="568.4683" x2="568.4683" y1="330.9412" y2="655.2812" /><line stroke="rgb(0%,100%,100%)" stroke-width="1.5" x1="720.0" x2="231.5317" y1="565.5144" y2="469.0588" /><line stroke="rgb(0%,100%,100%)" stroke-width="1.5" x1="231.5317" x2="231.5317" y1="469.0588" y2="144.7188" /><line stroke="rgb(0%,100%,100%)" stroke-dasharray="4,4" stroke-width="1.5" x1="231.5317" x2="720.0" y1="144.7188" y2="241.1744" /><line stroke="rgb(0%,100%,100%)" stroke-width="1.5" x1="720.0" x2="720.0" y1="241.1744" y2="565.5144" /><line stroke="rgb(0%,100%,100%)" stroke-width="1.5" x1="568.4683" x2="720.0" y1="655.2812" y2="565.5144" /><line stroke="rgb(0%,100%,100%)" stroke-width="1.5" x1="80.0" x2="231.5317" y1="558.8256" y2="469.0588" /><line stroke="rgb(0%,100%,100%)" stroke-dasharray="4,4" stroke-width="1.5" x1="80.0" x2="231.5317" y1="234.4856" y2="144.7188" /><line stroke="rgb(0%,100%,100%)" stroke-dasharray="4,4" stroke-width="1.5" x1="568.4683" x2="720.0" y1="330.9412" y2="241.1744" /><text fill="#FF69B4" font-family="Arial, sans-serif" font-size="20" x="294.2341553435246" y="685.2812489517268">67 cm</text><text fill="#FF69B4" font-family="Arial, sans-serif" font-size="20" x="90.0" y="603.7090513608166">36 cm</text><text fill="#FF69B4" font-family="Arial, sans-serif" font-size="20" x="578.4683106870492" y="700.1646523750428">41 cm</text></g></svg>